<svg width="77" height="63" viewBox="0 0 77 63" fill="none" xmlns="http://www.w3.org/2000/svg">
<path d="M73.5019 38.8921C73.3822 38.4134 73.3822 37.8151 73.7412 37.4561C75.7756 33.7464 76.9722 29.558 76.9722 25.1303C76.9722 11.2488 65.1251 0 50.6453 0C44.4226 0 38.6785 2.15402 34.1311 5.6244C49.0896 8.85543 60.2187 21.7796 60.2187 37.0971C60.2187 41.4051 59.3811 45.5935 57.7057 49.3032C60.0991 48.7049 62.3728 47.7475 64.5268 46.4312C65.0054 46.1918 65.4841 46.0722 65.9628 46.3115L73.6215 49.0639C74.9379 49.5426 76.2542 48.2262 75.8952 46.7902L73.5019 38.8921Z" fill="#F82BA9" fill-opacity="0.2"/>
<path d="M26.7112 11.9667C12.2314 11.9667 0.384277 23.2155 0.384277 37.097C0.384277 41.5247 1.58096 45.7131 3.73498 49.4228C3.97432 49.9015 4.09399 50.3801 3.97432 50.8588L1.46129 58.8766C0.982617 60.3126 2.29896 61.6289 3.73498 61.1503L11.3937 58.3979C11.8724 58.2782 12.4707 58.2782 12.8297 58.5176C16.8985 60.9109 21.5655 62.2273 26.7112 62.2273C41.1911 62.2273 53.0382 50.9785 53.0382 37.097C53.0382 23.2155 41.1911 11.9667 26.7112 11.9667ZM12.3511 41.8837C9.71838 41.8837 7.56436 39.7297 7.56436 37.097C7.56436 34.4643 9.71838 32.3103 12.3511 32.3103C14.9838 32.3103 17.1378 34.4643 17.1378 37.097C17.1378 39.7297 14.9838 41.8837 12.3511 41.8837ZM26.7112 41.8837C24.0785 41.8837 21.9245 39.7297 21.9245 37.097C21.9245 34.4643 24.0785 32.3103 26.7112 32.3103C29.3439 32.3103 31.498 34.4643 31.498 37.097C31.498 39.7297 29.3439 41.8837 26.7112 41.8837ZM41.0714 41.8837C38.4387 41.8837 36.2847 39.7297 36.2847 37.097C36.2847 34.4643 38.4387 32.3103 41.0714 32.3103C43.7041 32.3103 45.8581 34.4643 45.8581 37.097C45.8581 39.7297 43.7041 41.8837 41.0714 41.8837Z" fill="#F82BA9" fill-opacity="0.2"/>
</svg>
