<svg width="51" height="50" viewBox="0 0 51 50" fill="none" xmlns="http://www.w3.org/2000/svg">
<g clip-path="url(#clip0_31_1589)">
<g clip-path="url(#clip1_31_1589)">
<path d="M24.4999 11.0001C24.4977 9.15292 23.7935 7.3062 22.4999 6.00007C21.2064 4.69394 19.3292 4.00232 17.4999 4.00007V2.00007C17.4999 1.79476 17.6437 1.14525 17.4999 1.00007C17.3562 0.854891 16.7033 1.00007 16.4999 1.00007H9.49994C9.2966 1.00007 8.64371 0.854891 8.49994 1.00007C8.35616 1.14525 8.49994 1.79476 8.49994 2.00007V4.00007C6.67063 4.00232 4.79345 4.69394 3.49994 6.00007C2.20642 7.3062 1.50217 9.15292 1.49994 11.0001V23.0001C1.49994 23.2054 1.35616 23.8549 1.49994 24.0001C1.64371 24.1453 2.2966 24.0001 2.49994 24.0001H5.49994V25.0001C5.49994 25.2054 5.35616 25.8549 5.49994 26.0001C5.64371 26.1453 6.2966 26.0001 6.49994 26.0001H19.4999C19.7033 26.0001 20.3562 26.1453 20.4999 26.0001C20.6437 25.8549 20.4999 25.2054 20.4999 25.0001V24.0001H23.4999C23.7033 24.0001 24.3562 24.1453 24.4999 24.0001C24.6437 23.8549 24.4999 23.2054 24.4999 23.0001V11.0001ZM17.4999 8.00007L16.4999 9.00007C16.3725 9.06438 16.5748 8.87769 16.4999 9.00007C16.425 9.12245 16.4999 9.85621 16.4999 10.0001V11.0001L13.4999 14.0001L15.4999 6.00007H16.4999L17.4999 8.00007ZM9.49994 9.00007L8.49994 8.00007L9.49994 6.00007H10.4999L12.4999 13.0001L9.49994 11.0001V10.0001C9.5 9.85621 9.57482 9.12245 9.49994 9.00007C9.62738 9.06438 9.42505 8.87769 9.49994 9.00007ZM11.4999 6.00007H14.4999L13.4999 10.0001L11.4999 6.00007ZM9.49994 3.00007H16.4999V4.00007H9.49994V3.00007ZM5.49994 12.0001V23.0001H3.49994V11.0001C3.50202 9.73081 3.69347 8.97367 4.49994 8.00007C5.3064 7.02647 6.2631 6.2265 7.49994 6.00007L6.49994 9.00007C6.426 8.84599 6.4652 9.16766 6.49994 9.00007C6.57388 9.15416 7.34815 8.92374 7.49994 9.00007L8.49994 10.0001V12.0001C8.45224 11.8973 8.49998 12.1135 8.49994 12.0001C8.41359 11.9275 8.54763 12.1028 8.49994 12.0001L11.4999 15.0001C11.4818 15.0695 11.4985 15.9283 11.4999 16.0001V24.0001H6.49994V12.0001H5.49994ZM22.4999 23.0001H20.4999V12.0001H19.4999V24.0001H13.4999V16.0001L17.4999 12.0001C17.4522 12.1028 17.5863 11.9275 17.4999 12.0001C17.4999 12.1135 17.5476 11.8973 17.4999 12.0001V10.0001L18.4999 9.00007C18.651 8.92392 19.4261 9.15335 19.4999 9.00007C19.5338 9.16708 19.5738 8.8468 19.4999 9.00007L18.4999 6.00007C19.7373 6.22659 20.6934 7.02583 21.4999 8.00007C22.3065 8.97431 22.4986 9.73028 22.4999 11.0001V23.0001ZM19.4999 27.0001H6.49994C6.2966 27.0001 6.64371 27.8549 6.49994 28.0001C6.35616 28.1453 6.49994 27.7948 6.49994 28.0001V48.0001C6.49994 48.2054 6.35616 48.8549 6.49994 49.0001C6.2966 49.0001 6.64371 49.1453 6.49994 49.0001H11.4999C11.3582 49.1289 11.6907 49.001 11.4999 49.0001C11.6417 48.8712 12.4809 48.1917 12.4999 48.0001L13.4999 41.0001V48.0001C13.519 48.1917 14.3582 48.8712 14.4999 49.0001C14.3092 49.001 14.6417 49.1289 14.4999 49.0001H19.4999C19.3562 49.1453 19.7033 49.0001 19.4999 49.0001C19.6437 48.8549 19.4999 48.2054 19.4999 48.0001V28.0001C19.4999 27.7948 19.6437 28.1453 19.4999 28.0001C19.3562 27.8549 19.7033 27.0001 19.4999 27.0001ZM18.4999 47.0001H15.4999L13.4999 33.0001C13.481 32.8091 13.6409 33.1288 13.4999 33.0001C13.359 32.8713 13.69 33.0001 13.4999 33.0001C13.3099 33.0001 12.6409 32.8713 12.4999 33.0001C12.359 33.1288 12.5189 32.8091 12.4999 33.0001L10.4999 47.0001H7.49994V29.0001H18.4999V47.0001Z" fill="white"/>
<path d="M14.5 16.0001H16.5V18.0001H14.5V16.0001ZM14.5 20.0001H16.5V21.0001H14.5V20.0001ZM43.5 23.0001L45.5 11.0001C45.4999 11.0479 45.5087 10.9531 45.5 11.0001V10.0001C45.4997 9.35932 45.7684 8.58246 45.5 8.00008C45.2316 7.41769 44.9878 7.41819 44.5 7.00008V2.00008C44.5 1.79475 43.6459 1.14526 43.5 1.00008C43.3541 0.854886 43.7063 1.00008 43.5 1.00008H40.5C40.2937 1.00008 39.6459 0.854886 39.5 1.00008C39.3541 1.14526 39.5 1.79475 39.5 2.00008V6.00008C38.4695 6.42559 37.9702 6.99305 37.5 8.00008C37.0298 6.99305 35.5305 6.42559 34.5 6.00008V2.00008C34.5 1.79475 34.6459 1.14526 34.5 1.00008C34.3541 0.854886 33.7063 1.00008 33.5 1.00008H30.5C30.2937 1.00008 30.6459 0.854886 30.5 1.00008C30.3541 1.14526 30.5 1.79475 30.5 2.00008V7.00008C30.0122 7.41819 28.7684 7.41769 28.5 8.00008C28.2316 8.58246 28.5003 9.35932 28.5 10.0001V11.0001C28.4913 10.9531 28.5001 11.0479 28.5 11.0001L30.5 23.0001C26.5089 28.1067 24.5083 34.5301 24.5 41.0001V48.0001C24.5 48.2054 24.3541 48.8549 24.5 49.0001C24.6459 49.1453 25.2937 49.0001 25.5 49.0001H48.5C48.7063 49.0001 49.3541 49.1453 49.5 49.0001C49.6459 48.8549 49.5 48.2054 49.5 48.0001V41.0001C49.4917 34.5301 47.4911 28.1067 43.5 23.0001ZM40.5 3.00008H42.5V6.00008C42.0552 5.85605 41.9678 6.00019 41.5 6.00008C41.4401 6.00008 40.5599 5.99775 40.5 6.00008V3.00008ZM31.5 3.00008H33.5V6.00008C33.4401 6.00008 32.5599 6.00008 32.5 6.00008C32.0322 6.00019 31.9448 5.85605 31.5 6.00008V3.00008ZM30.5 11.0001V10.0001C30.4997 9.32155 30.066 8.52335 30.5 8.00008C30.934 7.47681 31.8306 7.12837 32.5 7.00008C33.1694 6.87178 33.9019 7.67461 34.5 8.00008C35.0981 8.32554 35.2471 8.36996 35.5 9.00008L36.5 11.0001C36.3712 10.9131 36.5576 11.144 36.5 11.0001C36.6288 11.087 37.3444 11.0001 37.5 11.0001C37.3712 11.087 37.6556 11.0001 37.5 11.0001C37.4424 11.144 37.6288 10.9131 37.5 11.0001L38.5 9.00008C38.7529 8.36996 38.9019 8.32554 39.5 8.00008C40.0981 7.67461 40.8306 6.87178 41.5 7.00008C42.1694 7.12837 43.066 7.47681 43.5 8.00008C43.934 8.52335 44.5003 9.32155 44.5 10.0001V11.0001L42.5 20.0001H31.5L30.5 11.0001ZM41.5 23.0001H32.5L31.5 21.0001H42.5L41.5 23.0001ZM47.5 47.0001H26.5V41.0001C26.5094 34.8853 27.7315 28.8291 31.5 24.0001H42.5C46.2685 28.8291 47.4906 34.8853 47.5 41.0001V47.0001Z" fill="white"/>
</g>
</g>
<defs>
<clipPath id="clip0_31_1589">
<rect width="50" height="50" fill="white" transform="translate(0.5)"/>
</clipPath>
<clipPath id="clip1_31_1589">
<rect width="50" height="50" fill="white" transform="translate(0.5)"/>
</clipPath>
</defs>
</svg>
