<svg width="50" height="50" viewBox="0 0 50 50" fill="none" xmlns="http://www.w3.org/2000/svg">
<g clip-path="url(#clip0_31_1555)">
<g clip-path="url(#clip1_31_1555)">
<g clip-path="url(#clip2_31_1555)">
<path d="M48 32.8569H46C46.064 31.6836 45.7771 29.3565 45 27.8785V13.9388C45.9442 13.9388 47 12.8875 47 11.9474V8.96032C47 8.02025 45.9442 6.96894 45 6.96894H42C42.1184 5.16211 42.1304 1.22232 40 -0.000907257C38.8429 -0.665221 36.8325 0.265615 35 1.99048C34.1217 2.81717 33.3557 3.52933 33 3.98186H30C29.6443 3.52942 28.8783 2.81717 28 1.99048C26.1676 0.265615 24.1571 -0.665318 23 -0.000907257C20.8697 1.22232 20.8816 5.16211 21 6.96894H18C17.0558 6.96894 16 8.02025 16 8.96032V11.9474C16 12.8875 17.0558 13.9388 18 13.9388V20.9086H15C14.6438 20.4427 13.8814 18.7752 13 17.9215C11.1583 16.1379 10.1618 16.2353 9 16.9259C6.87305 18.1897 6.88135 22.0507 7 23.8957H2C1.05615 23.8955 0 24.9467 0 25.8871V28.8742C0 29.7992 1.07734 29.8454 2 29.8699V33.8526C2 34.2561 1.59463 34.8483 2 34.8483C2.40537 34.8483 3 34.2561 3 33.8526V29.8699H14V48.788H4C3.5958 48.788 3 48.1957 3 47.7923V36.8397C3 36.4362 2.40537 35.844 2 35.844C1.59463 35.844 2 36.4362 2 36.8397V47.7923C2 49.0015 2.78652 49.7837 4 49.7837H46C47.2141 49.7837 48 49.001 48 47.7923V38.8311C48.8981 38.7796 50 37.7465 50 36.8397V34.8483C50.0001 33.908 48.9442 32.8569 48 32.8569ZM14 28.8742H2C1.93513 28.874 2.04577 28.9199 2 28.8742C1.95423 28.8284 0.999922 28.9388 1 28.8742V25.8871C0.999922 25.8225 1.95423 25.9329 2 25.8871C2.04577 25.8413 1.93512 24.8916 2 24.8914H14V28.8742ZM14 23.8957H8C7.9626 23.311 7.9374 22.8628 8 21.9043C8.12559 19.9815 9.30566 18.3341 10 17.9215C9.87773 17.9215 10.0946 17.8653 10 17.9215C11.0569 17.9215 12.7297 20.1916 14 21.9043V23.8957ZM44 32.8569H40V30.8655C40.7649 29.948 42.0949 27.9643 43 27.8785C42.8714 27.7669 43.1913 27.8605 43 27.8785C43.8968 28.6557 44.0955 31.2486 44 32.8569ZM34 4.97755C35.413 3.12726 38.0801 1.46181 39 1.99048C40.2119 2.68629 40.1539 4.84619 40 6.96894H34V4.97755ZM34 8.96032H45C44.9541 8.91464 45.0649 8.9604 45 8.96032C44.9999 8.89572 45.0459 9.006 45 8.96032V11.9474C44.9999 12.012 45.0459 11.9017 45 11.9474C44.9541 11.9931 45.0649 11.9473 45 11.9474H34V8.96032ZM30 5.97325H33V6.96894H30V5.97325ZM30 8.96032H33V11.9474H30V8.96032ZM32 24.8914C32.0649 24.8916 32.9542 25.8413 33 25.8871C33.0001 25.8225 33.0458 25.9329 33 25.8871V26.8828C32.5967 26.6711 31.4082 26.9218 31 26.8828C30.4095 26.8266 30.4312 26.5089 30 26.8828C29.5119 27.3058 29.2285 28.2138 29 28.8742H20V24.8914H32ZM27 23.8957C27.1187 22.0507 27.1271 18.1897 25 16.9259C23.8377 16.2356 22.8413 16.1368 21 17.9215C20.6832 18.2286 20.2687 18.617 20 18.9172V13.9388H29V23.8957H27ZM23 4.97755C23.1247 3.12784 23.3093 2.3871 24 1.99048C24.9209 1.46181 27.5871 3.12726 29 4.97755V6.96894H23C22.963 6.40342 22.9384 5.89303 23 4.97755ZM18 11.9474C17.9351 11.9473 18.0459 11.9931 18 11.9474C17.9541 11.9017 18.0001 12.012 18 11.9474V8.96032C17.9541 9.006 18.0001 8.89572 18 8.96032C17.9351 8.9604 18.0459 8.91464 18 8.96032H29V11.9474H18ZM16 21.9043H18V23.8957H16V21.9043ZM18 48.788H16V29.8699H18V48.788ZM18 28.8742H16V24.8914H18V28.8742ZM20 21.9043C21.4167 19.9927 23.0875 17.3793 24 17.9215C25.2211 18.647 26.1564 21.6925 26 23.8957H20V21.9043ZM20 48.788V29.8699H28C27.8615 30.8516 27.9639 32.1936 28 32.8569H26C25.0559 32.8569 24 33.9082 24 34.8483V36.8397C24 37.7466 25.1019 38.7796 26 38.8311V47.7923C26 48.0485 25.9185 48.5593 26 48.788H20ZM34 48.788H28C27.5953 48.788 27 48.1953 27 47.7923V38.8311H34V48.788ZM34 36.8397H26C25.9351 36.8396 25.0459 36.8854 25 36.8397C24.9541 36.794 25.0001 36.9043 25 36.8397V34.8483C24.9541 34.894 25.0001 34.7837 25 34.8483C25.0459 34.8026 25.9351 33.8527 26 33.8526H34V36.8397ZM34 32.8569H30C29.9046 31.2484 30.1033 28.6557 31 27.8785C30.8091 27.8605 31.1287 27.7668 31 27.8785C31.9051 27.9643 33.2351 29.948 34 30.8655V32.8569ZM34 27.8785V19.9129C34 19.5094 33.4054 18.9172 33 18.9172C32.5946 18.9172 33 19.5094 33 19.9129V23.8957H30V13.9388H33V16.9259C33 17.3294 32.5946 17.9215 33 17.9215C33.4054 17.9215 34 17.3294 34 16.9259V13.9388H43V26.8828C42.7361 26.7998 43.2974 26.8546 43 26.8828C41.3841 27.0371 39.6341 29.1215 39 29.8699H35C34.7343 29.5563 34.5618 28.3764 34 27.8785ZM36 32.8569V30.8655H38V32.8569H36ZM38 33.8526V36.8397H36V33.8526H38ZM47 47.7923C47 48.1953 46.4047 48.788 46 48.788H40V44.8052C40 44.4017 39.4054 43.8095 39 43.8095C38.5946 43.8095 38 44.4017 38 44.8052V48.788H36V38.8311H38V41.8182C38 42.2217 38.5946 42.8138 39 42.8138C39.4054 42.8138 40 42.2217 40 41.8182V38.8311H47V47.7923ZM49 36.8397C48.9999 36.9043 48.0459 36.794 48 36.8397C47.9541 36.8854 48.0649 36.8396 48 36.8397H40V33.8526H48C48.0649 33.8527 47.9541 34.8026 48 34.8483C48.0459 34.894 48.9999 34.7837 49 34.8483V36.8397Z" fill="white"/>
</g>
</g>
</g>
<defs>
<clipPath id="clip0_31_1555">
<rect width="50" height="50" fill="white"/>
</clipPath>
<clipPath id="clip1_31_1555">
<rect width="50" height="50" fill="white"/>
</clipPath>
<clipPath id="clip2_31_1555">
<rect width="50" height="50" fill="white"/>
</clipPath>
</defs>
</svg>
