<svg width="50" height="50" viewBox="0 0 50 50" fill="none" xmlns="http://www.w3.org/2000/svg">
<g clip-path="url(#clip0_31_1577)">
<g clip-path="url(#clip1_31_1577)">
<g clip-path="url(#clip2_31_1577)">
<path d="M12.0001 44H1.00009C0.784606 44 0.152468 43.8515 9.45181e-05 44C-0.152279 44.1485 9.45181e-05 43.79 9.45181e-05 44V48C9.45181e-05 48.6299 0.542975 48.5546 1.00009 49C1.45721 49.4454 1.35363 50 2.00009 50H11.0001C11.6466 50 11.543 49.4454 12.0001 49C12.4572 48.5546 13.0001 48.6299 13.0001 48V44C13.0001 43.79 13.1525 44.1485 13.0001 44C12.8477 43.8515 12.2156 44 12.0001 44ZM11.0001 48C11.0001 48.21 11.1525 47.8515 11.0001 48C10.8477 48.1485 11.2156 48 11.0001 48H2.00009C1.78461 48 2.15247 48.1485 2.00009 48C1.84772 47.8515 2.00009 48.21 2.00009 48V45H11.0001V48ZM11.0001 31H2.00009C1.35363 31 1.45721 31.5546 1.00009 32C0.542975 32.4454 9.45181e-05 32.3701 9.45181e-05 33V41C9.45181e-05 41.21 -0.152279 41.8515 9.45181e-05 42C0.152468 42.1485 0.784606 42 1.00009 42C0.847721 42.1485 1.21558 42 1.00009 42C1.15247 41.8515 2.00009 41.21 2.00009 41V33C1.84772 33.1485 2.00009 32.79 2.00009 33C1.78461 33 2.15247 32.8515 2.00009 33H11.0001C10.8477 32.8515 11.2156 33 11.0001 33C11.0001 32.79 11.1525 33.1485 11.0001 33V41C11.0001 41.21 11.8477 41.8515 12.0001 42C11.7846 42 12.1525 42.1485 12.0001 42C12.2156 42 12.8477 42.1485 13.0001 42C13.1525 41.8515 13.0001 41.21 13.0001 41V33C13.0001 32.3701 12.4572 32.4454 12.0001 32C11.543 31.5546 11.6466 31 11.0001 31Z" fill="white"/>
<path d="M3.0001 41C3.0001 41.2072 2.85319 41.8535 3.0001 42C3.147 42.1465 3.79235 42 4.0001 42C3.85319 42.1465 4.20785 42 4.0001 42C4.147 41.8535 5.0001 41.2072 5.0001 41C5.0001 40.5856 4.70629 40.293 5.0001 40C5.2939 39.7069 5.58459 40 6.0001 40C6.4156 40 6.70629 39.7069 7.0001 40C7.2939 40.293 8.0001 40.5856 8.0001 41C8.0001 41.2072 7.85319 41.8535 8.0001 42C7.79235 42 8.147 42.1465 8.0001 42C8.20785 42 8.85319 42.1465 9.0001 42C9.147 41.8535 9.0001 41.2072 9.0001 41C8.99886 40.514 9.22033 40.4334 9.0001 40C8.77986 39.5665 8.39227 39.2883 8.0001 39C8.31275 38.5958 7.99828 38.5104 8.0001 38C8.0001 37.3784 8.44081 36.4395 8.0001 36C7.55939 35.5604 6.62336 35 6.0001 35C5.37684 35 4.44081 35.5604 4.0001 36C3.55939 36.4395 4.0001 37.3784 4.0001 38C4.00278 38.5091 3.68826 38.5969 4.0001 39C3.6074 39.2887 3.22036 39.5658 3.0001 40C2.77984 40.4342 3.00072 40.5134 3.0001 41ZM5.0001 38C5.0001 37.8454 4.91402 37.1284 5.0001 37C5.08617 36.8715 5.85696 37.0591 6.0001 37C5.84815 36.9698 6.14323 36.9408 6.0001 37C6.15205 37.0301 6.89055 36.8907 7.0001 37C6.96987 36.8484 7.10965 37.1092 7.0001 37C7.03032 37.1515 7.05939 37.8572 7.0001 38C6.94081 38.1427 7.12892 37.9141 7.0001 38C6.87128 38.0858 6.15503 38 6.0001 38C5.79235 38 6.147 38.1465 6.0001 38C5.85319 37.8535 5.0001 38.2072 5.0001 38ZM18.0001 38C17.5819 40.8586 15.9083 43.8265 14.0001 46C13.8827 46.1579 13.9788 45.8045 14.0001 46C14.0214 46.1954 13.8514 46.8709 14.0001 47C14.1488 47.129 14.803 47.0059 15.0001 47C14.8594 47.1377 15.1971 46.9941 15.0001 47C17.1072 44.5991 18.54 41.1574 19.0001 38C19.0175 37.8972 19.0241 38.1014 19.0001 38C18.9761 37.8986 19.0617 38.0841 19.0001 38C18.9385 37.9158 19.0896 38.0537 19.0001 38C18.9106 37.9462 19.1035 38.0148 19.0001 38C18.8967 37.9851 18.1012 37.9736 18.0001 38C18.083 37.9365 17.899 38.0263 18.0001 38C18.0518 37.9094 17.9172 38.0634 18.0001 38C18.0125 37.8965 17.9484 38.0905 18.0001 38ZM39.0001 40C39.008 39.5478 39.2462 38.3798 39.0001 38C38.754 37.6201 38.4167 37.1785 38.0001 37C37.6871 36.872 37.1739 37.2894 37.0001 37C36.8263 36.7105 36.9655 36.3356 37.0001 36C37.0347 35.6643 36.7708 35.248 37.0001 35C37.2294 34.7519 37.6675 34.0616 38.0001 34C38.2266 33.9573 38.777 33.9424 39.0001 34C39.2232 34.0575 38.8227 34.8532 39.0001 35C39.1775 35.1467 39.9022 34.7919 40.0001 35C40.098 35.2081 40.0003 35.7701 40.0001 36C39.8532 35.8535 40.0001 36.2072 40.0001 36C40.147 36.1465 40.7923 37 41.0001 37C41.2079 37 40.8532 36.1465 41.0001 36C41.0001 36.2072 41.147 35.8535 41.0001 36C40.9996 35.4341 41.2922 34.4851 41.0001 34C40.708 33.5148 40.5007 33.2663 40.0001 33C39.4995 32.7336 38.5668 32.9717 38.0001 33C37.4334 33.0282 37.4716 32.6852 37.0001 33C36.5286 33.3147 35.2423 34.4882 35.0001 35C34.7579 35.5117 34.9441 35.4368 35.0001 36C35.0561 36.5631 35.6618 37.5457 36.0001 38C36.3384 38.4542 36.4757 38.7838 37.0001 39C36.9267 38.8779 37.1284 39.0623 37.0001 39C37.0735 39.122 37.0054 39.8577 37.0001 40C36.2387 41.1179 34.0001 44.2507 34.0001 46C34.0001 47.036 34.2656 48.2674 35.0001 49C35.7346 49.7325 36.9613 50 38.0001 50C39.0389 50 40.2656 49.7325 41.0001 49C41.7346 48.2674 42.0001 47.036 42.0001 46C42.0001 44.2507 39.7615 41.1179 39.0001 40ZM38.0001 48C37.3768 48 37.4408 48.4395 37.0001 48C36.5594 47.5604 36.0001 46.6216 36.0001 46C36.0001 45.1468 36.8729 42.757 38.0001 41C39.1273 42.757 41.0001 45.1476 41.0001 46C41.0001 46.6216 40.4408 47.5604 40.0001 48C39.5594 48.4395 38.6234 48 38.0001 48ZM33.0001 48H14.0001C13.7923 48 14.147 48.8535 14.0001 49C13.8532 49.1465 14.0001 48.7928 14.0001 49C14.0001 49.2072 13.8532 49.8535 14.0001 50C13.7923 50 14.147 50.1465 14.0001 50H33.0001C32.8532 50.1465 33.2078 50 33.0001 50C33.147 49.8535 34.0001 49.2072 34.0001 49C34.0001 48.7928 33.147 49.1465 33.0001 49C32.8532 48.8535 33.2078 48 33.0001 48ZM31.0001 37C30.8981 37.0137 31.0891 37.9483 31.0001 38C30.9111 38.0516 31.0624 37.9183 31.0001 38C30.9377 38.0817 31.0263 37.9007 31.0001 38C30.9739 38.0992 30.9862 37.8982 31.0001 38C31.2375 39.7478 31.2252 41.4145 32.0001 43C32.091 43.1864 32.8036 43.9322 33.0001 44C32.8131 44.0906 33.1966 44.0677 33.0001 44C33.1871 43.9093 33.9322 43.1959 34.0001 43C34.068 42.804 34.091 43.1864 34.0001 43C33.2984 41.5636 32.2153 39.5833 32.0001 38C31.9863 37.8981 32.0519 38.0887 32.0001 38C31.9482 37.9112 32.0821 38.0622 32.0001 38C31.9181 37.9378 32.0997 37.0261 32.0001 37C31.9005 36.9739 31.1022 36.986 31.0001 37ZM47.0001 40C47.008 39.5478 47.2462 38.3798 47.0001 38C46.754 37.6201 45.4167 37.1785 45.0001 37C44.6871 36.872 45.1739 37.2894 45.0001 37C44.8263 36.7105 44.9655 36.3356 45.0001 36C45.0347 35.6643 44.7708 35.248 45.0001 35C45.2294 34.7519 45.6675 34.0616 46.0001 34C45.777 33.9424 46.2266 33.9573 46.0001 34C46.2232 34.0575 46.8227 34.8532 47.0001 35C47.1775 35.1467 47.9022 34.7919 48.0001 35C48.098 35.2081 48.0003 35.7701 48.0001 36C47.8532 35.8535 48.0001 36.2072 48.0001 36C48.147 36.1465 47.7923 37 48.0001 37C48.2079 37 48.8532 36.1465 49.0001 36C49.0001 36.2072 49.147 35.8535 49.0001 36C48.9996 35.4341 49.2922 34.4851 49.0001 34C48.708 33.5148 48.5007 33.2663 48.0001 33C47.4995 32.7336 46.5668 32.9717 46.0001 33C45.4334 33.0282 44.4716 32.6852 44.0001 33C43.5286 33.3147 43.2423 34.4882 43.0001 35C42.7579 35.5117 42.9441 35.4368 43.0001 36C43.0561 36.5631 43.6618 37.5457 44.0001 38C44.3384 38.4542 44.4757 38.7838 45.0001 39C44.9267 38.8779 45.1284 39.0623 45.0001 39C45.0735 39.122 45.0054 39.8577 45.0001 40C44.2369 41.127 43.6397 41.7989 43.0001 43C42.9045 43.1841 42.9372 43.8024 43.0001 44C43.063 44.1975 43.8155 43.9046 44.0001 44C43.802 44.0627 44.1847 44.0953 44.0001 44C44.1982 43.9372 44.9045 44.1841 45.0001 44C45.4803 43.0742 45.5638 41.6828 46.0001 41C47.1265 42.7578 48.0001 45.15 48.0001 46C48.0001 46.6216 48.4408 47.5604 48.0001 48C47.5594 48.4395 46.6234 48 46.0001 48C45.4395 47.9979 45.4207 48.3696 45.0001 48C44.9222 47.933 44.0978 48.0321 44.0001 48C43.9024 47.9678 44.1027 47.9924 44.0001 48C43.8975 48.0075 44.092 47.9538 44.0001 48C43.9082 48.0461 43.0673 47.9222 43.0001 48C42.9329 48.0777 43.0323 47.9025 43.0001 48C42.9679 48.0974 42.9925 48.8976 43.0001 49C42.9538 48.9083 43.0077 49.1023 43.0001 49C43.0464 49.0916 43.9222 48.933 44.0001 49C44.5659 49.4902 45.2583 49.8935 46.0001 50C46.7419 50.1064 47.3187 50.3112 48.0001 50C48.6815 49.6887 48.5964 48.6297 49.0001 48C49.4038 47.3702 50.0027 46.7474 50.0001 46C50.0001 44.2507 47.7615 41.1179 47.0001 40ZM25.0001 38C36.8284 38 42.8431 17.8976 44.0001 14C44.1466 13.5075 45.0007 13.5136 45.0001 13C44.9981 11.693 43.8674 9.97982 43.0001 8.99996C42.1328 8.0201 41.3002 7.16412 40.0001 6.99996H37.0001H35.0001C34.9692 6.99341 34.0313 7.00487 34.0001 6.99996C33.8014 6.97123 34.1624 6.88217 34.0001 6.99996C33.8378 7.11776 34.0338 6.80261 34.0001 6.99996C33.9657 7.20008 33.8874 7.83088 34.0001 7.99996C33.8017 7.95422 34.1128 8.16904 34.0001 7.99996C33.9727 7.99684 34.0267 8.00543 34.0001 7.99996H36.0001C35.4873 10.6717 34.1022 13.2667 32.0001 15C29.898 16.7332 27.7276 18 25.0001 18C22.2726 18 19.1022 16.7332 17.0001 15C14.898 13.2667 13.5129 10.6717 13.0001 7.99996H16.0001C17.0962 7.85851 18.1729 7.73097 19.0001 6.99996C19.8273 6.26895 19.7273 5.06816 20.0001 3.99996L21.0001 1.99996H29.0001L30.0001 3.99996C30.1755 4.68732 30.5751 5.43131 31.0001 5.99996C30.7974 5.97122 31.1249 6.16187 31.0001 5.99996C31.2028 6.0287 31.835 6.12078 32.0001 5.99996C31.9668 6.20144 32.1652 5.87915 32.0001 5.99996C32.0334 5.79848 32.1175 5.16723 32.0001 4.99996C31.6963 4.59444 31.1272 4.49002 31.0001 3.99996L30.0001 0.999963C29.9577 0.830485 30.1383 0.107307 30.0001 -3.70443e-05C29.8619 -0.107382 30.1752 -0.000512637 30.0001 -3.70443e-05H20.0001C19.8254 1.10976e-05 20.1378 -0.10734 20.0001 -3.70443e-05C19.8624 0.107266 19.0424 0.830875 19.0001 0.999963V3.99996C18.8051 4.76275 17.5908 5.47792 17.0001 5.99996C16.4093 6.52201 15.7828 6.89876 15.0001 6.99996H10.0001C9.23619 7.10393 8.65402 7.59262 8.0001 7.99996C7.34617 8.4073 6.42895 9.36095 6.0001 9.99996C5.57125 10.639 5.12839 11.2417 5.0001 12C4.87181 12.7582 5.80525 13.256 6.0001 14C7.03175 17.9101 12.4104 38 25.0001 38ZM33.0001 18C33.7701 18.8937 34.0001 19.3179 34.0001 20C34.0001 20.4144 34.2939 20.7069 34.0001 21C33.7063 21.293 33.4156 22 33.0001 22C32.5846 22 32.2939 21.293 32.0001 21C31.7063 20.7069 31.0001 20.4144 31.0001 20C31.0001 19.3179 32.2301 18.8937 33.0001 18ZM27.0001 24C27.0001 24.6216 27.4408 25.5604 27.0001 26C26.5594 26.4395 25.6234 27 25.0001 27C24.3768 27 23.4408 26.4395 23.0001 26C22.5594 25.5604 23.0001 24.6216 23.0001 24C23.0001 22.6507 24.0476 21.0859 25.0001 20C25.9526 21.0859 27.0001 22.6507 27.0001 24ZM19.0001 20C19.0001 20.4144 18.2939 20.7069 18.0001 21C17.7063 21.293 17.4156 22 17.0001 22C16.5846 22 16.2939 21.293 16.0001 21C15.7063 20.7069 16.0001 20.4144 16.0001 20C16.0001 19.3179 16.2301 18.8937 17.0001 18C17.7701 18.8937 19.0001 19.3179 19.0001 20ZM10.0001 8.99996H12.0001C12.5396 11.9394 13.7452 14.0322 16.0001 16C15.2732 16.7937 14.0001 18.5312 14.0001 20C14.0001 20.8288 14.4125 22.4139 15.0001 23C15.5877 23.586 16.1691 23 17.0001 23C17.8311 23 18.4125 23.586 19.0001 23C19.5877 22.4139 20.0001 20.8288 20.0001 20C19.9576 19.3275 20.3547 18.5735 20.0001 18C21.1653 18.5081 21.7382 18.8433 23.0001 19C22.0115 20.2125 21.0001 22.3078 21.0001 24C21.0001 25.036 21.2656 26.2674 22.0001 27C22.7346 27.7325 23.9613 28 25.0001 28C26.0389 28 27.2656 27.7325 28.0001 27C28.7346 26.2674 29.0001 25.036 29.0001 24C29.0001 22.3078 27.9887 20.2125 27.0001 19C28.2623 18.8434 28.8347 18.5081 30.0001 18C29.6453 18.5734 30.0428 19.3275 30.0001 20C30.0001 20.8288 30.4125 22.4139 31.0001 23C31.5877 23.586 32.1691 23 33.0001 23C33.8311 23 34.4125 23.586 35.0001 23C35.5877 22.4139 36.0001 20.8288 36.0001 20C36.0001 18.5312 34.727 16.7961 34.0001 16C36.255 14.0322 37.4606 11.9394 38.0001 8.99996H40.0001C40.9221 9.11598 41.3853 9.30498 42.0001 9.99996C42.6149 10.6949 42.9996 12.0732 43.0001 13C43.0001 13.3634 43.104 13.6516 43.0001 14C41.9034 17.7086 35.7177 36 25.0001 36C13.5634 36 7.98083 17.7171 7.0001 14C6.91254 13.6604 6.99573 13.3506 7.0001 13C7.00118 12.0736 7.38537 10.6945 8.0001 9.99996C8.61482 9.30547 9.07855 9.11593 10.0001 8.99996Z" fill="white"/>
</g>
</g>
</g>
<defs>
<clipPath id="clip0_31_1577">
<rect width="50" height="50" fill="white"/>
</clipPath>
<clipPath id="clip1_31_1577">
<rect width="50" height="50" fill="white"/>
</clipPath>
<clipPath id="clip2_31_1577">
<rect width="50" height="50" fill="white"/>
</clipPath>
</defs>
</svg>
